<?xml version="1.0" encoding="UTF-8" standalone="no"?>
<!-- Created with Inkscape (http://www.inkscape.org/) -->

<svg
   version="1.1"
   id="svg2"
   width="544.14069"
   height="125.98088"
   viewBox="0 0 544.14068 125.98088"
   sodipodi:docname="jisho-logo-white.svg"
   inkscape:version="1.1.1 (3bf5ae0d25, 2021-09-20)"
   xmlns:inkscape="http://www.inkscape.org/namespaces/inkscape"
   xmlns:sodipodi="http://sodipodi.sourceforge.net/DTD/sodipodi-0.dtd"
   xmlns="http://www.w3.org/2000/svg"
   xmlns:svg="http://www.w3.org/2000/svg">
  <defs
     id="defs6" />
  <sodipodi:namedview
     id="namedview4"
     pagecolor="#ffffff"
     bordercolor="#666666"
     borderopacity="1.0"
     inkscape:pageshadow="2"
     inkscape:pageopacity="0.0"
     inkscape:pagecheckerboard="0"
     showgrid="false"
     showguides="true"
     inkscape:guide-bbox="true"
     inkscape:snap-bbox="true"
     inkscape:bbox-paths="true"
     inkscape:snap-bbox-edge-midpoints="true"
     inkscape:object-paths="true"
     inkscape:bbox-nodes="true"
     inkscape:snap-intersection-paths="true"
     inkscape:snap-smooth-nodes="true"
     inkscape:object-nodes="true"
     fit-margin-top="0"
     fit-margin-left="0"
     fit-margin-right="0"
     fit-margin-bottom="0"
     inkscape:zoom="2"
     inkscape:cx="240.25"
     inkscape:cy="-2.75"
     inkscape:window-width="3824"
     inkscape:window-height="2091"
     inkscape:window-x="2"
     inkscape:window-y="29"
     inkscape:window-maximized="0"
     inkscape:current-layer="layer1">
    <sodipodi:guide
       position="294.47868,125.98088"
       orientation="1,0"
       id="guide11367" />
    <sodipodi:guide
       position="304.32243,104.43205"
       orientation="0,-1"
       id="guide11369" />
    <sodipodi:guide
       position="313.25993,123.87932"
       orientation="1,0"
       id="guide11565" />
    <sodipodi:guide
       position="335.6154,126.04536"
       orientation="1,0"
       id="guide12589" />
    <sodipodi:guide
       position="332.19743,92.98073"
       orientation="0,-1"
       id="guide13145" />
    <sodipodi:guide
       position="424.01579,23.980881"
       orientation="1,0"
       id="guide13478" />
    <sodipodi:guide
       position="405.1779,118.98088"
       orientation="1,0"
       id="guide13480" />
    <sodipodi:guide
       position="451.05876,23.986741"
       orientation="1,0"
       id="guide13482" />
    <sodipodi:guide
       position="470.1779,23.904711"
       orientation="1,0"
       id="guide13484" />
    <sodipodi:guide
       position="424.01579,23.980881"
       orientation="0,-1"
       id="guide13486" />
    <sodipodi:guide
       position="283.18375,15.480941"
       orientation="1,0"
       id="guide26686" />
    <sodipodi:guide
       position="391.73073,72.98088"
       orientation="0,-1"
       id="guide26897" />
    <sodipodi:guide
       position="357.15054,45.98088"
       orientation="0,-1"
       id="guide27496" />
    <sodipodi:guide
       position="316.83415,123.98088"
       orientation="1,0"
       id="guide27498" />
  </sodipodi:namedview>
  <g
     inkscape:groupmode="layer"
     id="layer1"
     inkscape:label="Hidden"
     style="display:none"
     transform="translate(283.18131)">
    <rect
       style="fill:#585875;fill-opacity:1;stroke:none;stroke-width:1.38148"
       id="rect28103"
       width="889.35608"
       height="356"
       x="-375.06671"
       y="-273.28906"
       rx="3.8169787"
       ry="2"
       transform="translate(-69.608881,164.78906)" />
  </g>
  <g
     inkscape:groupmode="layer"
     inkscape:label="Image"
     id="g8"
     transform="translate(213.57243,164.78906)">
    <path
       id="path9910"
       style="fill:#ffffff;fill-opacity:1"
       d="m 191.60547,-157.78906 v 47.5 47.499998 h 9.41992 9.41797 v -23.25 -19.369738 c 0,-4.34743 4.12802,-10.46241 7.12891,-11.86268 6.14033,-2.8652 12.14893,-1.26943 14.99023,0.7207 4.39432,3.0779 5.16377,4.18091 5.04297,29.261718 l -0.11914,24.49414 c 5.64361,0.16636 12.37202,-0.03921 19.11914,0.08203 v -24.289062 c -0.0106,-14.311426 0.0648,-19.681596 0,-25.345936 0,-13.5849 -9.45138,-21.37404 -22.96872,-21.53492 -8.56974,-0.11548 -17.63759,2.0939 -23.19339,11.13794 0.0474,-2.61038 0,-8.2678 0,-17.54419 v -17.5 h -9.33786 z m -36.65235,24.21679 c -9.05015,0.21756 -17.41354,2.80267 -22.19335,7.15039 -5.57874,5.07443 -7.42754,14.6654 -4.35157,21.61915 2.69583,6.094363 7.65128,8.115237 23.15821,12.015621 13.2669,3.336958 17.68331,5.301634 18.63086,8.287109 1.87344,5.902685 -3.77477,10.703125 -12.5918,10.703125 -6.78533,0 -11.50686,-3.244651 -12.98047,-6.232422 -1.47361,-2.987772 -1.04688,-4.759765 -1.04688,-4.759765 h -17.95507 l 0.004,2.25 c 0.029,3.816628 2.08311,9.581225 7.34571,13.75 3.99021,3.160844 6.73217,4.640287 12.13281,6.023437 9.95872,2.55052 21.84791,1.063116 27.41406,-0.589844 9.20493,-2.733574 15.59007,-10.20442 16.18359,-18.933593 0.49421,-7.268492 -0.12125,-9.518684 -3.67578,-13.453126 -4.10698,-4.545932 -9.86557,-6.998842 -22.42187,-9.546872 -14.04214,-2.84956 -19.08283,-6.74004 -16.05664,-12.39453 1.34335,-2.51008 4.92467,-3.59294 11.33203,-3.42579 5.64114,0.14717 9.41349,2.4799 11.07031,6.42774 0.80274,1.91276 1.03702,2.44681 1.31894,2.89258 h 7.88809 8.68421 c 0.21234,-3.20148 -1.55205,-8.92502 -4.42639,-12.41211 -4.01119,-4.86626 -9.22176,-7.36739 -18.29102,-8.77735 -3.06219,-0.47607 -6.15516,-0.66626 -9.17188,-0.59375 z m 140.48829,0.0195 c -2.82528,-0.0455 -5.64245,0.20129 -8.35743,0.76171 -11.72019,2.41927 -18.90229,8.61058 -24.08593,18.24024 -2.14504,3.98485 -3.51498,9.58087 -3.38672,17.36328 0.1236,7.499545 1.11079,13.565772 3.99414,17.962891 4.76474,7.266246 10.11254,13.176597 17.87891,15.769531 2.74563,0.91668 8.27386,1.557478 13.62109,1.580078 13.75065,0.05801 22.70927,-4.1952 29.30469,-13.914062 10.20901,-15.043768 7.35383,-39.577598 -5.82032,-50.011718 -6.11852,-4.84596 -14.67259,-7.61559 -23.14843,-7.75195 z m -202.298832,1.71875 c -1.367162,0.009 -2.942289,0.0449 -4.720703,0.0449 h -7.316406 v 36.964841 c 0,25.743874 -0.032,31.04069 -0.146485,36.019531 -0.118634,5.159388 -3.475301,4.419417 -7.33789,4.466797 l -4.009766,0.04883 -0.002,7.083984 c -0.0017,3.89584 0.002,6.013321 0.002,7.75 1.031555,1.03156 10.329314,0.787566 16.023391,-0.433594 6.293329,-1.34968 11.098726,-3.609402 12.941406,-10.732422 1.29684,-5.01304 0.845347,-8.900046 1.023437,-41.382812 0.0032,-21.787255 0.185597,-32.761335 -0.0332,-37.369145 -0.107332,-2.26032 -2.322343,-2.48788 -6.423828,-2.46093 z m 16.515622,0.008 c -3.34574,-0.0134 -4.85873,0.13498 -5.89648,1.23828 -0.85778,0.91196 -0.5437,3.0291 -0.5,34.499999 v 33.298829 h 9.34375 9.4375 v -34.5 -34.499998 h -8.23828 c -1.67497,0 -3.03124,-0.0326 -4.14649,-0.0371 z m 186.49024,12.00195 c 2.27199,0.1319 4.45585,0.72766 6.17968,1.89453 6.30794,4.26989 9.72959,10.82433 9.60352,19.097659 -0.0416,2.730089 -0.33156,9.533396 -2.66211,14.296875 -1.48912,3.043659 -3.82339,5.999394 -5.53711,7.011718 -8.47362,5.005488 -18.61902,2.08348 -23.05078,-6.640624 -5.16255,-10.162679 -2.48643,-27.457718 5.09961,-32.962888 2.55009,-1.8506 6.58053,-2.9171 10.36719,-2.69727 z"
       sodipodi:nodetypes="ccccccssscccccccccccsssssszcccssssssssscscssssssssscssssscsscccscscsssssccccccssssssssssss" />
    <path
       id="rect10447"
       style="fill:#56d926;fill-opacity:1;stroke:none"
       d="m 80.90625,-164.78906 v 2 17.54883 2 h 2 7.84375 3.117188 c 4.366499,0 4.64775,1.41372 5.042453,1.86276 0.394703,0.44905 0.777859,-0.0666 0.777859,-3.86276 v -17.54883 c 0,-1.108 -0.892,-2 -2,-2 H 90.75 82.90625 Z"
       sodipodi:nodetypes="ccccccsssssccc" />
    <path
       id="path12671"
       style="fill:#56d926;fill-opacity:1;stroke:none"
       d="m 122.04297,-164.78906 v 2 17.54883 2 h -2 -7.84375 -3.11719 c -4.3665,0 -4.64775,1.41372 -5.04245,1.86276 -0.3947,0.44905 -0.77786,-0.0666 -0.77786,-3.86276 v -17.54883 c 0,-1.108 0.892,-2 2,-2 h 6.9375 7.84375 z"
       sodipodi:nodetypes="ccccccsssssccc" />
    <text
       xml:space="preserve"
       style="font-style:normal;font-variant:normal;font-weight:bold;font-stretch:normal;font-size:63.2736px;line-height:1.25;font-family:sans-serif;-inkscape-font-specification:'sans-serif Bold';fill:#ffffff;fill-opacity:1;stroke:none;stroke-width:1.58184"
       x="-216.94002"
       y="-63.715919"
       id="text34017"><tspan
         sodipodi:role="line"
         id="tspan34015"
         x="-216.94002"
         y="-63.715919"
         style="stroke-width:1.58184">Search</tspan></text>
  </g>
</svg>
