<?xml version="1.0" encoding="UTF-8" standalone="no"?>
<!-- Created with Inkscape (http://www.inkscape.org/) -->

<svg
   version="1.1"
   id="svg2"
   width="240"
   height="240"
   viewBox="0 0 240 240"
   sodipodi:docname="magnifier.svg"
   inkscape:version="1.1.1 (3bf5ae0d25, 2021-09-20)"
   xmlns:inkscape="http://www.inkscape.org/namespaces/inkscape"
   xmlns:sodipodi="http://sodipodi.sourceforge.net/DTD/sodipodi-0.dtd"
   xmlns="http://www.w3.org/2000/svg"
   xmlns:svg="http://www.w3.org/2000/svg">
  <defs
     id="defs6" />
  <sodipodi:namedview
     id="namedview4"
     pagecolor="#ffffff"
     bordercolor="#666666"
     borderopacity="1.0"
     inkscape:pageshadow="2"
     inkscape:pageopacity="0.0"
     inkscape:pagecheckerboard="0"
     showgrid="false"
     inkscape:zoom="3.6375"
     inkscape:cx="120"
     inkscape:cy="120"
     inkscape:window-width="3840"
     inkscape:window-height="2107"
     inkscape:window-x="-8"
     inkscape:window-y="-8"
     inkscape:window-maximized="1"
     inkscape:current-layer="g8" />
  <g
     inkscape:groupmode="layer"
     inkscape:label="Image"
     id="g8">
    <path
       style="fill:#000000"
       d="m 207.09966,238.53435 c -3.18375,-1.48235 -12.28295,-9.85484 -31.10826,-28.6238 l -26.60827,-26.52862 -7.10342,3.57723 c -14.92909,7.51817 -33.77273,10.96174 -51.872343,9.47938 C 52.740641,193.35364 19.319327,167.14944 6.5927314,130.72312 -7.9405578,89.125648 8.1881862,41.808509 45.262953,17.275707 101.68098,-20.056752 176.78169,8.7809889 194.41913,74.549828 c 2.42323,9.036045 2.82401,12.689184 2.78506,25.386098 -0.0463,15.092364 -2.99333,27.701114 -9.79066,41.888734 l -4.68315,9.77483 27.0071,27.22517 c 28.14225,28.36949 29.36218,29.95766 29.36218,38.22517 0,15.6309 -18.25239,27.88539 -32,21.48452 z m -93.5,-73.47986 c 3.85,-0.80334 11.25555,-3.5613 16.45678,-6.12881 27.72323,-13.68515 42.61164,-45.95327 35.05043,-75.965889 C 161.83787,69.98422 156.86563,61.27832 147.12242,51.470841 133.60711,37.866374 118.69073,31.504811 100.09966,31.416506 83.404092,31.337204 69.071372,36.289899 56.45563,46.49777 40.625511,59.306516 31.865324,78.284029 31.966334,99.549828 c 0.05469,11.515042 1.830229,18.797512 7.314274,30.000002 5.577541,11.39347 17.760644,23.7725 28.819048,29.2825 14.517066,7.23333 30.306124,9.3925 45.500004,6.22216 z M 143.12703,81.364269 C 124.08144,63.789418 93.249658,59.300313 68.539672,70.504355 c -3.630016,1.645928 -8.895537,4.677654 -11.701158,6.737169 l -5.10113,3.744573 2.931136,-5.444318 c 6.304596,-11.710214 20.535527,-22.060053 34.230357,-24.894976 11.266293,-2.3322 24.130053,-0.620007 35.002473,4.658903 8.62312,4.186802 18.49946,14.051148 22.81915,22.791443 1.98066,4.007601 3.43874,7.726056 3.24018,8.263234 -0.19856,0.537178 -3.2737,-1.711074 -6.83365,-4.996114 z"
       id="path827" />
  </g>
</svg>
